<?xml version="1.0" standalone="no"?>
<!DOCTYPE svg PUBLIC "-//W3C//DTD SVG 20010904//EN"
 "http://www.w3.org/TR/2001/REC-SVG-20010904/DTD/svg10.dtd">
<svg version="1.0" xmlns="http://www.w3.org/2000/svg"
 width="200.000000pt" height="200.000000pt" viewBox="0 0 200.000000 200.000000"
 preserveAspectRatio="xMidYMid meet">
<metadata>
Created by potrace 1.14, written by Peter Selinger 2001-2017
</metadata>
<g transform="translate(0.000000,200.000000) scale(0.100000,-0.100000)"
fill="#000000" stroke="none">
<path d="M18 1410 c-10 -4 -13 -84 -12 -405 1 -220 2 -406 3 -413 1 -10 21
-12 79 -10 l77 3 -1 280 c-1 154 -4 295 -7 313 -9 56 9 35 26 -30 14 -57 64
-236 133 -475 l27 -93 81 0 82 0 43 143 c96 315 153 502 155 504 0 1 0 -144
-2 -323 l-4 -324 84 0 84 0 -1 417 0 417 -121 1 -121 0 -93 -312 c-52 -172
-96 -313 -100 -313 -4 0 -19 46 -34 103 -15 56 -32 113 -36 127 -5 14 -23 77
-41 140 -57 205 -71 250 -77 251 -23 4 -213 4 -224 -1z"/>
<path d="M1280 1408 c0 -3 22 -75 48 -160 26 -84 84 -269 127 -411 l80 -257
99 2 98 3 33 105 c18 58 53 170 78 250 25 80 68 217 96 305 27 88 48 162 45
164 -2 3 -41 5 -85 6 -74 2 -81 0 -90 -19 -14 -33 -147 -521 -160 -587 -15
-76 -17 -74 -35 31 -5 29 -79 297 -141 513 -9 31 -22 58 -27 58 -42 5 -166 3
-166 -3z"/>
</g>
</svg>
